<?xml version="1.0" encoding="utf-8"?>
<!-- Generator: Adobe Illustrator 26.0.2, SVG Export Plug-In . SVG Version: 6.00 Build 0)  -->
<svg version="1.1" id="Layer_1" xmlns="http://www.w3.org/2000/svg" xmlns:xlink="http://www.w3.org/1999/xlink" x="0px" y="0px"
	 viewBox="0 0 1667 2500" style="enable-background:new 0 0 1667 2500;" xml:space="preserve">
<g>
	<path d="M763.5,1736.7v346.7c0,46.8-9.2,92.2-27.2,134.9c-17.5,41.3-42.5,78.4-74.4,110.2c-31.9,31.9-69,56.9-110.2,74.4
		c-42.7,18.1-88.1,27.2-134.9,27.2s-92.2-9.2-134.9-27.2c-41.3-17.5-78.4-42.5-110.2-74.4c-31.9-31.9-56.9-69-74.4-110.2
		c-18.1-42.7-27.2-88.1-27.2-134.9s9.2-92.2,27.2-134.9c17.5-41.3,42.5-78.4,74.4-110.2s69-56.9,110.2-74.4
		c42.7-18.1,88.1-27.2,134.9-27.2H763.5 M833.5,1666.7H416.8c-230,0-416.7,186.7-416.7,416.7S186.8,2500,416.8,2500
		s416.7-186.7,416.7-416.7V1666.7L833.5,1666.7z"/>
</g>
<g>
	<path d="M763.5,903.3v693.3H416.8c-46.8,0-92.2-9.2-134.9-27.2c-41.3-17.5-78.4-42.5-110.2-74.4s-56.9-69-74.4-110.2
		c-18.1-42.7-27.2-88.1-27.2-134.9s9.2-92.2,27.2-134.9c17.5-41.3,42.5-78.4,74.4-110.2c31.9-31.9,69-56.9,110.2-74.4
		c42.7-18.1,88.1-27.2,134.9-27.2H763.5 M833.5,833.3H416.8C186.8,833.3,0.2,1020,0.2,1250s186.7,416.7,416.7,416.7h416.7V833.3
		L833.5,833.3z"/>
</g>
<g>
	<path d="M763.5,70v693.3H416.8c-46.8,0-92.2-9.2-134.9-27.2c-41.3-17.5-78.4-42.5-110.2-74.4c-31.9-31.9-56.9-69-74.4-110.2
		c-18.1-42.7-27.2-88.1-27.2-134.9c0-46.8,9.2-92.2,27.2-134.9c17.5-41.3,42.5-78.4,74.4-110.2c31.9-31.9,69-56.9,110.2-74.4
		C324.7,79.2,370,70,416.8,70H763.5 M833.5,0H416.8C186.8,0,0.2,186.7,0.2,416.7c0,230,186.7,416.7,416.7,416.7h416.7V0L833.5,0z"/>
</g>
<g>
	<path d="M1250.2,70c46.8,0,92.2,9.2,134.9,27.2c41.3,17.5,78.4,42.5,110.2,74.4c31.9,31.9,56.9,69,74.4,110.2
		c18.1,42.7,27.2,88.1,27.2,134.9c0,46.8-9.2,92.2-27.2,134.9c-17.5,41.3-42.5,78.4-74.4,110.2c-31.9,31.9-69,56.9-110.2,74.4
		c-42.7,18.1-88.1,27.2-134.9,27.2H903.5V70H1250.2 M1250.2,0H833.5v833.3h416.7c230,0,416.7-186.7,416.7-416.7
		C1666.8,186.7,1480.2,0,1250.2,0L1250.2,0z"/>
</g>
<g>
	<path d="M1250.2,903.3c46.8,0,92.2,9.2,134.9,27.2c41.3,17.5,78.4,42.5,110.2,74.4c31.9,31.9,56.9,69,74.4,110.2
		c18.1,42.7,27.2,88.1,27.2,134.9s-9.2,92.2-27.2,134.9c-17.5,41.3-42.5,78.4-74.4,110.2c-31.9,31.9-69,56.9-110.2,74.4
		c-42.7,18.1-88.1,27.2-134.9,27.2s-92.2-9.2-134.9-27.2c-41.3-17.5-78.4-42.5-110.2-74.4c-31.9-31.9-56.9-69-74.4-110.2
		c-18.1-42.7-27.2-88.1-27.2-134.9s9.2-92.2,27.2-134.9c17.5-41.3,42.5-78.4,74.4-110.2c31.9-31.9,69-56.9,110.2-74.4
		C1158,912.5,1203.4,903.3,1250.2,903.3 M1250.2,833.3c-230,0-416.7,186.7-416.7,416.7s186.7,416.7,416.7,416.7
		s416.7-186.7,416.7-416.7S1480.2,833.3,1250.2,833.3L1250.2,833.3z"/>
</g>
</svg>
