<?xml version="1.0" encoding="utf-8"?>
<!-- Generator: Adobe Illustrator 26.0.2, SVG Export Plug-In . SVG Version: 6.00 Build 0)  -->
<svg version="1.1" id="Layer_1" xmlns="http://www.w3.org/2000/svg" xmlns:xlink="http://www.w3.org/1999/xlink" x="0px" y="0px"
	 viewBox="0 0 51.3 68" style="enable-background:new 0 0 51.3 68;" xml:space="preserve">
<desc>Created with Sketch.</desc>
<g id="Page-1">
	<g id="styleguide" transform="translate(-1007.000000, -1313.000000)">
		<g id="Group-16" transform="translate(40.000000, 1187.000000)">
			<g id="Group-9" transform="translate(114.000000, 0.000000)">
				<g id="Group-27" transform="translate(812.000000, 0.000000)">
					<g id="logo_lockup_firebase_horizontal_knockout" transform="translate(41.546961, 126.408840)">
						<path id="icon" d="M1.6,43.9L8.2,1.3C8.3,0.6,8.8,0.1,9.5,0c0.6-0.1,1.3,0.2,1.6,0.8l7.1,13.4L1.6,43.9z M48.6,54.2L42.3,15
							c-0.1-0.6-0.5-1-1-1.2c-0.5-0.2-1.1,0-1.5,0.4L0,54.2l22,12.4c1.4,0.8,3.1,0.8,4.4,0L48.6,54.2z M30.7,20l-5.1-9.7
							c-0.3-0.5-0.8-0.8-1.3-0.8c-0.6,0-1.1,0.3-1.3,0.8L0.6,50.3L30.7,20z"/>
					</g>
				</g>
			</g>
		</g>
	</g>
</g>
</svg>
