<?xml version="1.0" encoding="utf-8"?>
<!-- Generator: Adobe Illustrator 26.0.2, SVG Export Plug-In . SVG Version: 6.00 Build 0)  -->
<svg version="1.1" id="Layer_1" xmlns="http://www.w3.org/2000/svg" xmlns:xlink="http://www.w3.org/1999/xlink" x="0px" y="0px"
	 viewBox="0 0 240 234" style="enable-background:new 0 0 240 234;" xml:space="preserve">
<style type="text/css">
	.st0{fill:#FFFFFF;}
</style>
<g id="vlpa">
	<g id="vlpb">
		<g id="vlpc">
			<g id="vlpd">
				<path d="M42.5,0h155C221,0,240,19,240,42.5v149c0,23.5-19,42.5-42.5,42.5h-155C19,234,0,215,0,191.5v-149C0,19,19,0,42.5,0z"/>
			</g>
		</g>
	</g>
	<g id="vlpe">
		<g id="vlpf">
			<path class="st0" d="M116,140H78.8l-7.6,23.5c-0.2,0.9-1,1.5-1.9,1.4H50.5c-1.1,0-1.4-0.6-1.1-1.8l32.2-92.7c0.3-1,0.6-2.1,1-3.3
				c0.4-2.1,0.6-4.3,0.6-6.5c-0.1-0.5,0.3-1,0.8-1.1h0.3h25.6c0.8,0,1.2,0.3,1.3,0.8l36.5,103c0.3,1.1,0,1.6-1,1.6h-20.9
				c-0.7,0.1-1.4-0.4-1.6-1.1L116,140L116,140z M84.6,119.7H110c-0.6-2.1-1.4-4.6-2.3-7.2c-0.9-2.7-1.8-5.6-2.7-8.6
				c-1-3.1-1.9-6.1-2.9-9.2s-1.9-6-2.7-8.9c-0.8-2.8-1.5-5.4-2.2-7.8H97c-0.9,4.3-2,8.6-3.4,12.9c-1.5,4.8-3,9.8-4.6,14.8
				C87.6,110.8,86.1,115.5,84.6,119.7z"/>
			<path class="st0" d="M170,77c-3.3,0.1-6.5-1.2-8.9-3.5c-2.3-2.5-3.5-5.8-3.4-9.2c-0.1-3.4,1.2-6.6,3.6-8.9s5.6-3.5,8.9-3.5
				c3.9,0,6.9,1.2,9.1,3.5c2.2,2.4,3.4,5.6,3.3,8.9c0.1,3.4-1.1,6.7-3.5,9.2C176.8,75.9,173.4,77.2,170,77L170,77z M158.8,163.8v-77
				c0-1,0.4-1.4,1.3-1.4h19.8c0.9,0,1.3,0.5,1.3,1.4v77c0,1.1-0.4,1.6-1.3,1.6h-19.6C159.3,165.4,158.8,164.8,158.8,163.8z"/>
		</g>
	</g>
</g>
</svg>
